<?xml version="1.0" encoding="UTF-8"?>
<svg id="Layer_1" xmlns="http://www.w3.org/2000/svg" viewBox="0 0 700 500.79">
  <defs>
    <style>
      .cls-1 {
        fill: #fff;
      }
    </style>
  </defs>
  <path class="cls-1" d="M350.02,289.68c74.84,0,97.19-26.45,102.69-87.46,5.51-61.19-17.4-91.9-102.69-91.9s-108.2,30.71-102.69,91.9c5.5,61.01,27.85,87.46,102.69,87.46ZM403.32,182.95v-55.88c0-.62.6-1.06,1.19-.87,11.4,3.65,20.13,8.79,26.25,15.49,11.3,12.36,15.38,31.33,12.82,59.7-2.73,30.29-9.6,48.97-22.28,60.56-12.49,11.42-32.26,17.31-61.74,18.37-.7.02-1.17-.73-.84-1.34l37.81-69.42c4.45-8.17,6.79-17.32,6.79-26.62ZM307.6,123.1c11.88-2.4,25.97-3.61,42.42-3.61s30.54,1.21,42.42,3.61c.55.11.86.71.65,1.24-16.64,41.58-35.03,80.24-41.05,92.67-.82,1.7-3.23,1.7-4.04,0-6.02-12.43-24.42-51.09-41.05-92.67-.21-.53.1-1.12.65-1.24ZM269.29,141.69c6.13-6.7,14.86-11.84,26.25-15.49.58-.19,1.19.25,1.19.87v55.88c0,9.3,2.34,18.45,6.79,26.62l37.81,69.42c.34.61-.14,1.37-.84,1.33-29.49-1.05-49.25-6.95-61.74-18.36-12.68-11.59-19.55-30.27-22.28-60.56-2.55-28.37,1.52-47.34,12.82-59.7ZM350,300c82.98,0,107.71-29.49,113.81-97.53,6.08-67.9-18.87-102.47-113.81-102.47s-119.88,34.56-113.81,102.47c6.09,68.03,30.83,97.53,113.81,97.53ZM256.9,131.41c16.06-17.67,45.53-26.26,93.1-26.26s77.04,8.6,93.1,26.27c13.61,14.99,18.57,37.42,15.6,70.59-3.16,35.19-11.3,57.07-26.43,70.93-16.3,14.95-42.44,21.9-82.28,21.9s-65.98-6.96-82.28-21.9c-15.12-13.86-23.27-35.74-26.42-70.93-2.98-33.18,1.99-55.61,15.6-70.6ZM213.43,368.82h-28.3v-18.89h-15.54v50.87h15.54v-20.85h28.3v20.85h15.46v-50.87h-15.46v18.89ZM100,374.87c0,18.48,9.16,25.93,30.91,25.93h23.8v-10.71h-21.59c-12.59,0-16.6-4.09-16.6-15.21,0-10.14,4.09-14.23,16.19-14.23h22v-10.71h-23.31c-21.26,0-31.41,7.93-31.4,24.94ZM363.41,378.14c0,1.06-.82,1.47-1.55.82l-31.16-26.82c-2.13-1.88-3.68-2.21-6.95-2.21h-8.18v50.87h12.76v-28.54c0-.9.65-1.15,1.31-.57l31.08,26.83c1.96,1.72,3.6,2.29,6.3,2.29h7.11c1.31,0,2.04-.74,2.04-2.04v-48.82h-12.76v28.22ZM502.19,349.92h-17.26l-21.59,50.87h13.58l16.27-38.93c.49-1.23,1.39-1.23,1.96.08l17.01,38.85h16.93l-21.1-47.43c-1.15-2.62-2.78-3.43-5.81-3.43ZM600,349.92h-12.76v28.21c0,1.06-.82,1.47-1.55.82l-31.16-26.82c-2.13-1.88-3.68-2.21-6.95-2.21h-8.18v50.87h12.76v-28.54c0-.9.65-1.15,1.31-.57l31.08,26.83c1.96,1.72,3.6,2.29,6.3,2.29h7.11c1.31,0,2.04-.74,2.04-2.04v-48.82ZM278.36,349.92h-17.26l-21.59,50.87h13.58l16.27-38.93c.49-1.23,1.39-1.23,1.96.08l17.01,38.85h16.93l-21.1-47.44c-1.15-2.62-2.78-3.43-5.81-3.43ZM389.91,374.7c0,18.81,9.16,26.09,31.57,26.09h28.87c1.31,0,2.04-.74,2.04-2.04v-26.5c0-1.31-.74-2.04-2.04-2.04h-24.21v10.22h10.88c.57,0,.98.41.98.98v7.69c0,.57-.41.98-.98.98h-13.66c-13.17,0-16.93-1.88-16.93-15.38,0-12.27,3.93-14.15,16.52-14.15h29.44v-10.71l-30.42.08c-21.84,0-32.06,7.61-32.06,24.78Z"/>
</svg>